HIERARCHY
ROOT Hips
{
	OFFSET 0.000000 35.082581 0.000000
	CHANNELS 6 Xposition Yposition Zposition Xrotation Yrotation Zrotation 
	JOINT Spine
	{
		OFFSET 0.000000 6.876099 0.125700
		CHANNELS 3 Xrotation Yrotation Zrotation
		JOINT Spine1
		{
			OFFSET 0.000000 5.730043 0.104720
			CHANNELS 3 Xrotation Yrotation Zrotation
			JOINT Spine1_split
			{
				OFFSET 0.000000 5.730043 0.104720
				CHANNELS 3 Xrotation Yrotation Zrotation
				JOINT Spine2
				{
					OFFSET 0.000000 5.730043 0.104720
					CHANNELS 3 Xrotation Yrotation Zrotation
					JOINT Neck
					{
						OFFSET 0.000000 10.314075 0.188496
						CHANNELS 3 Xrotation Yrotation Zrotation
						JOINT Head
						{
							OFFSET 0.000000 7.643700 -2.377400
							CHANNELS 3 Xrotation Yrotation Zrotation
							JOINT HeadTop_End
							{
								OFFSET 0.000000 43.788605 -13.619600
								CHANNELS 3 Xrotation Yrotation Zrotation
								End Site
								{
									OFFSET 0.000000 0.000000 0.000000
								}
							}
						}
					}
					JOINT LeftShoulder
					{
						OFFSET 2.196100 4.412489 0.087492
						CHANNELS 3 Xrotation Yrotation Zrotation
						JOINT LeftShoulder_split
						{
							OFFSET 2.196100 4.412489 0.087492
							CHANNELS 3 Xrotation Yrotation Zrotation
							JOINT LeftArm
							{
								OFFSET 8.771219 -2.981674 -0.026999
								CHANNELS 3 Xrotation Yrotation Zrotation
								JOINT LeftForeArm
								{
									OFFSET 8.512804 0.000000 -0.000000
									CHANNELS 3 Xrotation Yrotation Zrotation
									JOINT LeftHand
									{
										OFFSET 18.484802 0.000000 -0.000000
										CHANNELS 3 Xrotation Yrotation Zrotation
										JOINT LeftHandThumb1
										{
											OFFSET 2.499420 -1.158070 2.653252
											CHANNELS 3 Xrotation Yrotation Zrotation
											JOINT LeftHandThumb2
											{
												OFFSET 2.370079 -1.368366 1.368366
												CHANNELS 3 Xrotation Yrotation Zrotation
												JOINT LeftHandThumb3
												{
													OFFSET 2.676727 -1.545410 1.545409
													CHANNELS 3 Xrotation Yrotation Zrotation
													JOINT LeftHandThumb4
													{
														OFFSET 1.692226 -0.977005 0.977007
														CHANNELS 3 Xrotation Yrotation Zrotation
														End Site
														{
															OFFSET 0.000000 0.000000 0.000000
														}
													}
												}
											}
										}
										JOINT LeftHandIndex1
										{
											OFFSET 7.924831 -0.457527 2.345128
											CHANNELS 3 Xrotation Yrotation Zrotation
											JOINT LeftHandIndex2
											{
												OFFSET 3.643303 0.000000 0.000000
												CHANNELS 3 Xrotation Yrotation Zrotation
												JOINT LeftHandIndex3
												{
													OFFSET 3.810799 0.000000 0.000000
													CHANNELS 3 Xrotation Yrotation Zrotation
													JOINT LeftHandIndex4
													{
														OFFSET 2.403702 0.000000 0.000000
														CHANNELS 3 Xrotation Yrotation Zrotation
														End Site
														{
															OFFSET 0.000000 0.000000 0.000000
														}
													}
												}
											}
										}
										JOINT LeftHandMiddle1
										{
											OFFSET 8.563995 0.000000 -0.000000
											CHANNELS 3 Xrotation Yrotation Zrotation
											JOINT LeftHandMiddle2
											{
												OFFSET 3.861618 0.000000 0.000000
												CHANNELS 3 Xrotation Yrotation Zrotation
												JOINT LeftHandMiddle3
												{
													OFFSET 3.701603 0.000000 0.000000
													CHANNELS 3 Xrotation Yrotation Zrotation
													JOINT LeftHandMiddle4
													{
														OFFSET 2.322544 0.000000 0.000000
														CHANNELS 3 Xrotation Yrotation Zrotation
														End Site
														{
															OFFSET 0.000000 0.000000 0.000000
														}
													}
												}
											}
										}
										JOINT LeftHandRing1
										{
											OFFSET 8.426460 -0.424637 -3.286992
											CHANNELS 3 Xrotation Yrotation Zrotation
											JOINT LeftHandRing2
											{
												OFFSET 3.126408 0.000000 0.000000
												CHANNELS 3 Xrotation Yrotation Zrotation
												JOINT LeftHandRing3
												{
													OFFSET 3.085026 0.000000 0.000000
													CHANNELS 3 Xrotation Yrotation Zrotation
													JOINT LeftHandRing4
													{
														OFFSET 1.644005 0.000000 0.000000
														CHANNELS 3 Xrotation Yrotation Zrotation
														End Site
														{
															OFFSET 0.000000 0.000000 0.000000
														}
													}
												}
											}
										}
									}
								}
							}
						}
					}
					JOINT RightShoulder
					{
						OFFSET -2.196100 4.412496 0.070690
						CHANNELS 3 Xrotation Yrotation Zrotation
						JOINT RightShoulder_split
						{
							OFFSET -2.196100 4.412496 0.070690
							CHANNELS 3 Xrotation Yrotation Zrotation
							JOINT RightArm
							{
								OFFSET -8.771282 -2.981682 -0.094208
								CHANNELS 3 Xrotation Yrotation Zrotation
								JOINT RightForeArm
								{
									OFFSET -8.494598 0.000000 0.000000
									CHANNELS 3 Xrotation Yrotation Zrotation
									JOINT RightHand
									{
										OFFSET -18.483803 0.000000 0.000001
										CHANNELS 3 Xrotation Yrotation Zrotation
										JOINT RightHandThumb1
										{
											OFFSET -2.527351 -1.008072 2.575253
											CHANNELS 3 Xrotation Yrotation Zrotation
											JOINT RightHandThumb2
											{
												OFFSET -2.321518 -1.340328 1.340329
												CHANNELS 3 Xrotation Yrotation Zrotation
												JOINT RightHandThumb3
												{
													OFFSET -2.657753 -1.534454 1.534455
													CHANNELS 3 Xrotation Yrotation Zrotation
													JOINT RightHandThumb4
													{
														OFFSET -1.807510 -1.043568 1.043567
														CHANNELS 3 Xrotation Yrotation Zrotation
														End Site
														{
															OFFSET 0.000000 0.000000 0.000000
														}
													}
												}
											}
										}
										JOINT RightHandIndex1
										{
											OFFSET -8.811420 0.015533 2.887987
											CHANNELS 3 Xrotation Yrotation Zrotation
											JOINT RightHandIndex2
											{
												OFFSET -3.537502 0.000000 0.000000
												CHANNELS 3 Xrotation Yrotation Zrotation
												JOINT RightHandIndex3
												{
													OFFSET -3.356201 0.000000 0.000000
													CHANNELS 3 Xrotation Yrotation Zrotation
													JOINT RightHandIndex4
													{
														OFFSET -1.933098 0.000000 0.000000
														CHANNELS 3 Xrotation Yrotation Zrotation
														End Site
														{
															OFFSET 0.000000 0.000000 0.000000
														}
													}
												}
											}
										}
										JOINT RightHandMiddle1
										{
											OFFSET -8.178135 0.000000 0.000000
											CHANNELS 3 Xrotation Yrotation Zrotation
											JOINT RightHandMiddle2
											{
												OFFSET -3.901302 0.000000 0.000000
												CHANNELS 3 Xrotation Yrotation Zrotation
												JOINT RightHandMiddle3
												{
													OFFSET -3.909599 0.000000 0.000000
													CHANNELS 3 Xrotation Yrotation Zrotation
													JOINT RightHandMiddle4
													{
														OFFSET -2.376003 0.000000 0.000000
														CHANNELS 3 Xrotation Yrotation Zrotation
														End Site
														{
															OFFSET 0.000000 0.000000 0.000000
														}
													}
												}
											}
										}
										JOINT RightHandRing1
										{
											OFFSET -7.559013 0.014137 -2.865403
											CHANNELS 3 Xrotation Yrotation Zrotation
											JOINT RightHandRing2
											{
												OFFSET -3.449306 0.000000 0.000000
												CHANNELS 3 Xrotation Yrotation Zrotation
												JOINT RightHandRing3
												{
													OFFSET -3.362106 0.000000 0.000000
													CHANNELS 3 Xrotation Yrotation Zrotation
													JOINT RightHandRing4
													{
														OFFSET -2.076401 0.000000 0.000000
														CHANNELS 3 Xrotation Yrotation Zrotation
														End Site
														{
															OFFSET 0.000000 0.000000 0.000000
														}
													}
												}
											}
										}
									}
								}
							}
						}
					}
				}
			}
		}
	}
	JOINT LeftUpLeg
	{
		OFFSET 10.205400 -3.823500 0.155100
		CHANNELS 3 Xrotation Yrotation Zrotation
		JOINT LeftLeg
		{
			OFFSET 0.708757 -12.982077 0.567790
			CHANNELS 3 Xrotation Yrotation Zrotation
			JOINT LeftFoot
			{
				OFFSET -0.708756 -10.717838 -2.184338
				CHANNELS 3 Xrotation Yrotation Zrotation
				JOINT LeftToeBase
				{
					OFFSET 0.108149 -7.191104 7.560241
					CHANNELS 3 Xrotation Yrotation Zrotation
					JOINT LeftToe_End
					{
						OFFSET 0.070230 0.081724 4.490308
						CHANNELS 3 Xrotation Yrotation Zrotation
						End Site
						{
							OFFSET 0.000000 0.000000 0.000000
						}
					}
				}
			}
		}
	}
	JOINT RightUpLeg
	{
		OFFSET -10.205400 -3.823500 0.005500
		CHANNELS 3 Xrotation Yrotation Zrotation
		JOINT RightLeg
		{
			OFFSET -0.708756 -12.982134 0.610632
			CHANNELS 3 Xrotation Yrotation Zrotation
			JOINT RightFoot
			{
				OFFSET 0.708754 -10.717769 -1.945823
				CHANNELS 3 Xrotation Yrotation Zrotation
				JOINT RightToeBase
				{
					OFFSET -0.108140 -7.191069 7.372968
					CHANNELS 3 Xrotation Yrotation Zrotation
					JOINT RightToe_End
					{
						OFFSET -0.070227 0.081735 4.479403
						CHANNELS 3 Xrotation Yrotation Zrotation
						End Site
						{
							OFFSET 0.000000 0.000000 0.000000
						}
					}
				}
			}
		}
	}
}
MOTION
Frames: 4
Frame Time: 0.016667
1.278688 24.840271 -20.291763 16.539248 -76.789939 15.454592 4.458608 9.465178 -3.123095 9.594759 18.344812 -7.012219 0.000000 0.000000 0.000000 9.594761 18.344780 -7.012206 2.735906 2.537199 0.917081 2.210337 -0.400986 -2.541339 -0.000001 0.000001 -0.000000 4.442661 -4.896772 0.391668 0.000000 0.000000 0.000000 -74.044865 -32.200872 -59.779557 45.630025 -71.166412 44.297390 30.811557 -13.945448 5.324262 -19.313933 7.326463 -0.325104 17.757221 27.151330 -7.102081 0.000001 -0.000003 -0.000022 -0.000000 0.000001 -0.000000 8.737622 0.556789 -27.858991 -3.246450 1.052146 -21.338361 -0.000005 0.000002 -0.000008 0.000001 -0.000001 -0.000000 -3.793158 6.626416 -20.382893 -1.406092 -1.003757 -21.514840 0.000000 0.000004 -0.000005 -0.000000 -0.000001 0.000000 -8.139625 9.457001 -29.778918 1.966546 -4.844278 -27.350987 -0.000002 0.000010 -0.000004 0.000000 -0.000001 0.000002 3.889444 8.333831 -7.261197 0.000000 0.000000 0.000000 -42.000240 -3.203179 27.938520 -12.789904 47.794921 2.424354 36.354208 22.263316 -26.066816 -9.151829 -3.932288 17.229605 -8.906348 -3.563899 -6.479059 -0.000001 0.000027 -0.000002 0.000000 -0.000000 -0.000000 -2.009631 8.213990 -5.048296 -1.625975 -0.980976 33.676528 0.000005 -0.000000 0.000000 -0.000000 -0.000002 -0.000000 -3.382731 -5.223058 -15.049917 -1.435143 -1.099676 25.006617 0.000002 0.000001 -0.000001 -0.000002 -0.000001 0.000001 -8.188920 -12.219961 -0.270454 2.472539 4.601768 34.000432 0.000004 0.000006 -0.000000 0.000000 0.000004 0.000001 -34.149546 -9.271876 35.289596 83.189191 1.638791 -0.826807 -34.351385 14.976038 -35.645234 -2.515507 -3.237338 0.633296 -0.000000 0.000005 0.000000 -54.968669 5.414414 -22.327441 89.409403 25.699311 -4.647264 -38.258301 -3.535739 6.610316 -1.854535 -0.300690 0.346332 -0.000000 0.000001 -0.000000 
1.297441 24.607674 -20.390522 23.904530 -75.494730 22.263570 4.567442 9.288689 -3.217886 9.805973 18.007215 -7.165119 0.000000 0.000000 0.000000 9.805969 18.007234 -7.165125 1.927738 4.490859 1.287779 1.537582 -0.532066 -4.732038 0.000003 0.000002 -0.000001 4.342705 -4.985473 -0.341769 0.000000 0.000000 0.000000 -66.423289 -29.193233 -56.580505 44.445424 -70.007410 43.935752 31.304465 -11.015020 4.016399 -19.044908 6.177787 0.481984 19.312368 28.165043 -8.456583 0.000003 0.000003 -0.000022 -0.000004 -0.000000 -0.000004 9.294370 -0.271005 -31.038473 -3.248171 0.907476 -22.504481 -0.000002 -0.000003 -0.000005 0.000002 -0.000004 -0.000000 -3.842870 6.742086 -20.716322 -1.447313 -1.155395 -22.951731 0.000000 0.000007 -0.000006 0.000001 0.000000 0.000000 -8.079881 9.523675 -29.657938 1.892683 -4.850334 -27.940887 -0.000001 0.000008 -0.000007 0.000002 0.000000 -0.000000 3.540739 8.113212 -5.624216 0.000000 0.000000 0.000000 -39.216084 -4.972966 28.094463 -12.221753 46.311476 3.788296 34.197671 22.070045 -22.498758 -9.063447 -3.936846 17.210065 -8.695230 -3.775173 -6.551199 0.000001 0.000025 -0.000002 0.000002 -0.000007 0.000000 -2.062659 8.026969 -3.931500 -1.632743 -0.857241 34.503083 0.000004 -0.000002 0.000001 -0.000000 -0.000002 0.000001 -3.225482 -5.131285 -13.367339 -1.402173 -0.904893 26.301237 0.000003 -0.000001 -0.000002 -0.000001 -0.000001 -0.000000 -7.680280 -12.230770 1.506799 2.246284 4.705190 35.492614 0.000003 0.000000 -0.000001 0.000000 -0.000000 0.000001 -38.090206 -10.329722 36.433202 84.430577 0.091620 -1.098334 -34.157865 14.400685 -34.957379 -2.479148 -3.226598 0.662932 -0.000000 -0.000002 -0.000000 -57.292300 5.747181 -22.166151 90.295545 25.214065 -4.031037 -38.892900 -3.561348 6.573777 -2.079865 -0.442195 0.287602 0.000000 -0.000000 0.000000 
1.323191 24.433178 -20.476358 29.885544 -73.946947 27.847795 4.675352 9.113237 -3.290973 10.016238 17.679747 -7.291498 0.000000 0.000000 0.000000 10.016240 17.679747 -7.291496 1.141876 6.463886 1.637535 0.937898 -0.640678 -6.991574 -0.000002 -0.000000 0.000000 4.231868 -4.936969 -0.833358 0.000000 0.000000 0.000000 -58.521416 -25.699393 -53.642646 41.104512 -69.046492 41.375804 30.954178 -7.949375 3.669321 -18.695744 5.341792 1.222978 19.851257 28.173171 -9.185024 0.000004 -0.000001 -0.000020 -0.000004 0.000005 -0.000002 9.121585 -1.933233 -33.603335 -3.251639 0.762725 -23.660873 -0.000004 0.000002 -0.000008 0.000002 -0.000001 -0.000001 -3.890822 6.785517 -21.931765 -1.491390 -1.304108 -24.365609 0.000003 0.000004 -0.000005 0.000002 0.000000 -0.000002 -7.771812 10.307829 -30.766461 1.809478 -4.872204 -28.906856 -0.000002 0.000010 -0.000010 0.000002 -0.000003 0.000006 3.219536 7.942037 -3.888783 0.000000 0.000000 0.000000 -35.652385 -7.358676 27.766298 -11.633918 45.311448 5.140159 31.216874 21.636477 -18.440992 -8.993642 -3.944187 17.135326 -8.463736 -3.999585 -6.613720 -0.000004 0.000022 -0.000000 0.000000 -0.000002 0.000003 -2.142772 7.757690 -2.456751 -1.629386 -0.726823 35.289593 0.000007 -0.000003 -0.000000 -0.000001 -0.000002 -0.000004 -3.043230 -5.002355 -11.157962 -1.372890 -0.672067 27.878650 0.000002 -0.000002 -0.000003 -0.000001 0.000001 0.000001 -7.078836 -12.195035 3.756912 1.980156 4.816494 37.201066 0.000002 -0.000003 -0.000003 -0.000000 0.000003 -0.000006 -42.006107 -11.290262 37.036926 85.232831 -1.080814 -1.359180 -33.567388 13.743688 -34.265830 -2.405881 -3.232617 0.742419 0.000000 -0.000000 -0.000000 -59.447713 6.214079 -22.130132 91.000516 24.637490 -3.540556 -39.477431 -3.731461 6.750939 -2.114423 -0.465128 0.283354 0.000000 -0.000001 -0.000000 
1.355165 24.318218 -20.552448 34.415728 -72.276078 32.166492 4.789078 8.942260 -3.334083 10.238190 17.364549 -7.376343 0.000000 0.000000 0.000000 10.238199 17.364537 -7.376337 0.368233 8.396665 1.955981 0.410730 -0.716205 -9.243249 0.000001 0.000000 0.000001 4.107735 -4.811341 -1.179699 0.000000 0.000000 0.000000 -50.713038 -21.636928 -51.563195 36.144511 -68.037632 36.990225 29.863715 -5.250592 4.082335 -18.282721 4.747885 1.912498 19.476264 27.304072 -9.321532 0.000004 0.000006 -0.000022 -0.000001 0.000000 -0.000000 8.191134 -4.289865 -35.718105 -3.258103 0.613756 -24.845308 -0.000004 0.000001 -0.000007 -0.000002 -0.000002 -0.000001 -3.936839 6.766876 -23.953769 -1.539544 -1.453371 -25.791184 -0.000005 0.000007 -0.000003 -0.000001 0.000003 -0.000001 -7.141164 11.712622 -33.013057 1.716909 -4.907859 -30.228730 -0.000003 0.000012 -0.000011 0.000001 0.000001 0.000001 2.932191 7.881682 -2.048420 0.000000 0.000000 0.000000 -31.285835 -10.550632 27.298313 -11.071075 45.033356 6.402680 27.469766 20.872032 -13.854832 -8.937089 -3.951747 17.012519 -8.206382 -4.247617 -6.666320 -0.000001 0.000023 -0.000002 -0.000000 0.000002 -0.000000 -2.237309 7.418804 -0.626215 -1.620781 -0.585847 36.089637 0.000006 -0.000001 0.000001 0.000000 -0.000003 0.000003 -2.842426 -4.831145 -8.446975 -1.353442 -0.403321 29.723771 0.000001 -0.000002 -0.000003 -0.000002 0.000002 0.000000 -6.401986 -12.092155 6.441912 1.678107 4.929184 39.109151 0.000001 -0.000001 0.000004 0.000001 -0.000001 0.000001 -45.719367 -12.038733 37.059848 85.596559 -1.820312 -1.545636 -32.693776 13.084612 -33.588664 -2.332869 -3.237089 0.814633 0.000000 -0.000003 -0.000000 -61.350112 6.830349 -22.208707 91.546453 23.963681 -3.175819 -40.010200 -3.991988 7.129748 -2.015096 -0.416261 0.308912 0.000000 -0.000001 -0.000000 
